<svg width="30" height="30" viewBox="0 0 30 30" fill="none" xmlns="http://www.w3.org/2000/svg">
<path fill-rule="evenodd" clip-rule="evenodd" d="M29 1H1V29H29V1ZM0 0V30H30V0H0Z" fill="#202027"/>
<path fill-rule="evenodd" clip-rule="evenodd" d="M10.6776 17.3025C11.1005 17.6491 11.6639 18.1395 12.2257 19.1812C12.5256 19.7373 13.1756 20.0381 14.0187 20.1405C14.8464 20.241 15.7309 20.1308 16.2847 19.9973L16.6201 19.9164L16.6304 19.9316C16.6335 19.9296 16.6366 19.9277 16.6397 19.9257C16.8644 19.7828 17.1757 19.5341 17.5314 19.2105C18.2395 18.5662 19.0557 17.6871 19.6049 16.9326C19.8505 16.5952 19.9422 16.3256 19.9582 16.0951C19.9742 15.8627 19.9169 15.6168 19.7734 15.3198C19.627 15.0168 19.405 14.6887 19.1176 14.2935C19.0387 14.185 18.9547 14.0713 18.8672 13.9527C18.6446 13.6512 18.3985 13.3179 18.1522 12.9575C17.8109 12.4581 17.5595 12.0907 17.3495 11.8196C17.1352 11.5429 16.9999 11.4156 16.9035 11.3568C16.8373 11.3165 16.7861 11.3041 16.6849 11.3216C16.5503 11.3448 16.3627 11.4165 16.046 11.5666C15.5478 11.8027 15.2269 11.9423 14.8457 11.8733C14.7428 11.8547 14.6202 11.8154 14.5187 11.7828C14.4861 11.7723 14.4556 11.7626 14.4287 11.7544C14.2895 11.7122 14.1001 11.6617 13.8126 11.6153C13.5381 11.571 13.388 11.5825 13.2976 11.6046C13.2159 11.6246 13.1477 11.6613 13.0457 11.7435C13.0032 11.7778 12.9549 11.821 12.8992 11.8707C12.6774 12.0689 12.3383 12.3718 11.7782 12.6373C11.2079 12.9075 10.9935 13.1233 10.8426 13.365C10.757 13.5021 10.6834 13.6616 10.5878 13.8836C10.5729 13.9181 10.5576 13.9539 10.5417 13.991C10.4584 14.1857 10.3599 14.4159 10.2331 14.6762C9.95814 15.2404 9.93601 15.4544 9.94677 15.6075C9.95351 15.7036 9.97478 15.7983 10.0134 15.9704C10.0505 16.1355 10.0959 16.3428 10.1272 16.6144C10.1568 16.871 10.253 16.9544 10.6776 17.3025ZM9.96811 18.0144C9.61777 17.7305 9.21137 17.4013 9.13383 16.729C9.10875 16.5116 9.07285 16.346 9.03772 16.1895C9.03533 16.1789 9.0329 16.1681 9.03045 16.1572C8.99837 16.0151 8.96144 15.8514 8.94923 15.6776C8.9202 15.2645 9.031 14.8602 9.33411 14.2382C9.44929 14.0018 9.53721 13.7964 9.62037 13.6022C9.63686 13.5637 9.65316 13.5256 9.66945 13.4878C9.76514 13.2657 9.86453 13.0433 9.99442 12.8353C10.2745 12.3869 10.6613 12.0599 11.3499 11.7336C11.7671 11.5359 11.9758 11.3507 12.1904 11.1604C12.2629 11.0961 12.3361 11.0312 12.4181 10.965C12.5848 10.8306 12.7846 10.7007 13.0599 10.6333C13.3264 10.5681 13.6221 10.5716 13.9719 10.628C14.3089 10.6824 14.5422 10.7439 14.7188 10.7974C14.8035 10.8231 14.8598 10.8413 14.9011 10.8547C14.9598 10.8737 14.9878 10.8828 15.0236 10.8893L15.0261 10.89C15.0409 10.8947 15.0935 10.9114 15.6177 10.6629C15.9305 10.5147 16.2302 10.3852 16.515 10.3361C16.833 10.2813 17.133 10.3256 17.4239 10.5028C17.6844 10.6616 17.9119 10.9127 18.1401 11.2072C18.3705 11.5046 18.6384 11.8967 18.9687 12.3799L18.9778 12.3933C19.2132 12.7377 19.4418 13.0473 19.6607 13.3437C19.7509 13.466 19.8396 13.586 19.9263 13.7053C20.2154 14.1029 20.4849 14.4938 20.6738 14.8847C20.8656 15.2816 20.9876 15.7044 20.9558 16.164C20.9239 16.6255 20.7407 17.0713 20.4134 17.5211C19.8165 18.341 18.9519 19.27 18.2044 19.9501C17.8322 20.2888 17.472 20.5815 17.1763 20.7695C17.0337 20.8602 16.8738 20.9477 16.7169 20.9922C16.6534 21.0103 16.5042 21.0436 16.3447 21.0088C15.7058 21.1438 14.7881 21.2413 13.8981 21.1332C12.939 21.0167 11.877 20.6414 11.3455 19.6559C10.868 18.7705 10.4103 18.3764 10.0437 18.0758C10.0189 18.0555 9.99364 18.0351 9.96811 18.0144Z" fill="#202027"/>
<path fill-rule="evenodd" clip-rule="evenodd" d="M13.2848 17.2591C13.5227 17.4541 13.847 17.7374 14.1655 18.3278C14.2707 18.5229 14.5198 18.6654 14.9408 18.7165C15.3464 18.7658 15.7878 18.7114 16.0624 18.6452L16.2282 18.6052C16.3285 18.5355 16.4641 18.4255 16.6225 18.2814C16.9897 17.9472 17.4123 17.4915 17.6931 17.1057C17.8045 16.9526 17.8319 16.8506 17.8366 16.7821C17.8415 16.7118 17.8262 16.6225 17.7612 16.488C17.6933 16.3475 17.5863 16.1878 17.4339 15.9782C17.3938 15.923 17.3503 15.864 17.3044 15.8019C17.1853 15.6406 17.0503 15.4577 16.9168 15.2623C16.7337 14.9945 16.6046 14.806 16.4982 14.6687C16.4207 14.5686 16.3728 14.5196 16.3467 14.4965C16.3044 14.508 16.2299 14.5363 16.0907 14.6024L16.0851 14.605C15.836 14.723 15.5974 14.8361 15.3106 14.7843C15.2379 14.7711 15.1446 14.741 15.0922 14.7241C15.0798 14.7201 15.0696 14.7168 15.0626 14.7147C14.9974 14.6949 14.9069 14.6706 14.7657 14.6478C14.6374 14.6271 14.5917 14.6368 14.5849 14.6384C14.5825 14.639 14.5816 14.6393 14.5789 14.6408C14.5746 14.6432 14.564 14.6496 14.5423 14.6671C14.527 14.6795 14.5072 14.6972 14.4827 14.7192C14.3694 14.8212 14.1557 15.0133 13.8217 15.1716C13.5463 15.3021 13.4727 15.3908 13.4227 15.4709C13.3875 15.5272 13.3545 15.5973 13.3036 15.7152C13.296 15.7328 13.2881 15.7513 13.2798 15.7707C13.2355 15.8743 13.1807 16.0025 13.1105 16.1465C12.9742 16.4263 12.9796 16.4988 12.9813 16.5211L12.9814 16.5227C12.9835 16.5524 12.99 16.5839 13.0117 16.6807C13.0319 16.7704 13.0582 16.8905 13.0763 17.0475C13.0767 17.0509 13.0766 17.0537 13.0764 17.0563C13.0752 17.0752 13.0745 17.0867 13.2848 17.2591ZM12.6085 17.9982C12.4233 17.8493 12.1355 17.618 12.0829 17.1621C12.0711 17.0592 12.0542 16.9809 12.036 16.8998C12.0347 16.8938 12.0333 16.8876 12.0318 16.8812C12.0151 16.8076 11.9916 16.7039 11.9838 16.5927C11.9641 16.3122 12.0438 16.0527 12.2115 15.7085C12.2701 15.5884 12.3143 15.485 12.3585 15.3819C12.3674 15.3611 12.3763 15.3403 12.3853 15.3194C12.4362 15.2014 12.495 15.0684 12.5745 14.9412C12.7536 14.6544 12.9996 14.4545 13.3934 14.2679C13.5836 14.1778 13.667 14.1038 13.7737 14.0091C13.8148 13.9727 13.8593 13.9332 13.9147 13.8886C14.0184 13.8049 14.1555 13.714 14.3471 13.6671C14.5301 13.6223 14.7214 13.6277 14.925 13.6606C15.1158 13.6914 15.25 13.7266 15.3527 13.7577C15.381 13.7663 15.4178 13.778 15.442 13.7858C15.4472 13.7875 15.4519 13.7889 15.4557 13.7902C15.4918 13.7767 15.5532 13.7504 15.6624 13.6987C15.8277 13.6203 16.0133 13.538 16.1999 13.5058C16.4197 13.4679 16.6375 13.499 16.8448 13.6252C17.0217 13.7331 17.1643 13.8955 17.2888 14.0563C17.4156 14.22 17.5614 14.4333 17.7339 14.6856L17.7424 14.6981C17.865 14.8775 17.9825 15.0367 18.0979 15.1929C18.1465 15.2587 18.1947 15.324 18.2427 15.39C18.3968 15.6019 18.5512 15.8245 18.6615 16.0529C18.7748 16.2873 18.8548 16.5535 18.8342 16.8511C18.8135 17.1505 18.6948 17.4288 18.5016 17.6942C18.1731 18.1455 17.7021 18.651 17.2955 19.021C17.0938 19.2045 16.8908 19.3705 16.717 19.481C16.6353 19.5329 16.5274 19.5941 16.411 19.6271C16.3759 19.637 16.2745 19.6619 16.1545 19.6486C15.7981 19.7197 15.3045 19.768 14.8203 19.7092C14.2831 19.644 13.6221 19.427 13.2853 18.8025C13.0512 18.3684 12.8326 18.1814 12.6508 18.0324C12.6375 18.0215 12.6234 18.0101 12.6085 17.9982Z" fill="#202027"/>
<path d="M15.3797 17.7035C15.5987 18.1096 16.2815 18.0597 16.5956 17.984C16.6603 18.0787 17.2438 17.541 17.5456 17.1263C17.8475 16.7116 17.5212 16.4483 17.1653 15.9275C16.8093 15.4067 16.777 15.3593 16.4454 15.5165C16.1675 15.6482 16.2635 15.5714 15.9346 15.5183C15.6057 15.4652 15.6529 15.6413 15.3213 15.7985C14.9898 15.9556 15.0047 16.0844 14.8524 16.3968C14.7002 16.7092 14.7824 16.7225 14.8121 16.9801C14.8418 17.2376 15.106 17.196 15.3797 17.7035Z" fill="#202027"/>
<path fill-rule="evenodd" clip-rule="evenodd" d="M15.8621 3.4665C15.7244 3.48445 15.5884 3.49999 15.5 3.49999H9C8.11438 3.49999 6.98877 3.87652 5.90081 4.38971C4.82661 4.8964 3.85234 5.50563 3.29062 5.90686L2.70938 5.09312C3.31432 4.66102 4.34005 4.02025 5.47419 3.48528C6.59456 2.9568 7.88562 2.49999 9 2.49999H15.5C15.5032 2.49985 15.5223 2.49899 15.5638 2.49487C15.6068 2.4906 15.6631 2.48397 15.7328 2.47489C15.872 2.45675 16.0547 2.43008 16.2721 2.39649C16.7062 2.32937 17.2689 2.23613 17.8784 2.13212C19.0969 1.92418 20.495 1.67452 21.4106 1.50806L21.5894 2.49193C20.6717 2.65879 19.2698 2.90913 18.0466 3.11787C17.4353 3.22219 16.8667 3.31645 16.4248 3.38475C16.2042 3.41886 16.0126 3.44688 15.8621 3.4665ZM26.7966 5.27336C26.3973 4.41468 25.9186 3.69863 25.6096 3.31234L26.3904 2.68764C26.7481 3.13468 27.2694 3.91863 27.7034 4.85163C28.1354 5.78048 28.5 6.89787 28.5 7.99999H27.5C27.5 7.10211 27.1979 6.13617 26.7966 5.27336ZM4.52448 8.72568C3.97469 9.45612 3.62448 10.2077 3.47434 10.6581L2.52566 10.3419C2.70885 9.7923 3.10864 8.94386 3.72552 8.1243C4.34194 7.30534 5.20104 6.48106 6.3143 6.03575L6.6857 6.96423C5.79896 7.31892 5.07472 7.99465 4.52448 8.72568ZM1.95574 24.0088C1.62867 22.8314 1.5 21.535 1.5 20.5H2.5C2.5 21.465 2.62133 22.6686 2.91926 23.7412C3.22356 24.8366 3.68229 25.6873 4.27735 26.084C5.48609 26.8898 6.15182 27.4447 6.35355 27.6464L5.64645 28.3535C5.51484 28.2219 4.91391 27.7102 3.72265 26.916C2.81771 26.3127 2.27644 25.1633 1.95574 24.0088Z" fill="#202027"/>
<path fill-rule="evenodd" clip-rule="evenodd" d="M16.7588 6.54425C15.6002 6.86609 16.0341 7.2559 13.4502 6.99751C11.6802 6.82051 10.074 7.8111 8.74216 9.25189C7.41794 10.6845 6.44726 11.4781 5.96423 12.6857L5.83851 13H5.67275C5.63912 13.1201 5.61103 13.3152 5.60125 13.5956C5.57936 14.2232 5.65262 15.1263 5.80717 16.1772C6.11559 18.2745 6.73298 18.864 7.46815 20.8244C7.81738 21.7557 8.26717 22.3566 8.79999 22.7562C9.33603 23.1583 9.99708 23.3874 10.8207 23.505C11.6498 23.6235 11.6125 24.6251 12.7361 24.5939C13.0528 24.5851 13.3824 24.5737 13.7238 24.5619C14.5799 24.5322 16.5106 24.5 17.5 24.5C17.8808 24.5 17.9267 24.4998 18.7374 24.4539C19.5552 24.4076 20.0751 24.3167 20.428 24.1654C20.7488 24.0279 20.9429 23.8361 21.0964 23.5175C21.2651 23.1671 22.3815 22.6696 22.5068 21.9178C22.7113 20.6908 22.8495 21.1406 23.3104 20.6968C23.4464 20.5657 23.6228 20.4355 23.8067 20.2996C23.8777 20.2472 23.9499 20.1939 24.0212 20.1395C24.3013 19.9258 24.6642 19.6287 25.1464 19.1464C25.62 18.6729 25.8508 18.3227 25.9648 18.0347C26.0748 17.7567 26.0918 17.4976 26.0642 17.1665C26.0522 17.0225 26.0307 16.8638 26.0068 16.688C25.919 16.0413 23.7995 15.1616 24.0068 13.9178C24.2454 12.4862 24.1176 11.7189 23.796 11.022C23.6266 10.6549 23.3966 10.2931 23.0996 9.84765C23.0523 9.77671 23.0035 9.70385 22.9532 9.62885C22.692 9.23938 22.3922 8.79222 22.0712 8.25723C21.3392 7.0372 21.8948 7.62461 21.4447 7.37457C21.2105 7.24445 20.9612 7.15033 20.6183 7.02083L20.5811 7.00679C20.2256 6.8725 19.8 6.70901 19.2764 6.44721C18.5008 6.0594 17.9544 6.21149 16.867 6.51416C16.8315 6.52404 16.7955 6.53407 16.7588 6.54425ZM5.71039 12.8994C5.71039 12.8994 5.70905 12.9026 5.70598 12.9072C5.70879 12.9014 5.71039 12.8994 5.71039 12.8994ZM16.6847 5.52653C17.6945 5.24255 18.596 4.989 19.7236 5.55278C20.2 5.79098 20.5868 5.93998 20.9345 6.07132C20.9554 6.07922 20.9763 6.0871 20.9972 6.09497C21.3165 6.21535 21.63 6.33359 21.9303 6.50041C22.6052 6.87536 22.1608 6.46277 22.9287 7.74274C23.2357 8.25437 23.5201 8.67858 23.7809 9.06767C23.8321 9.14398 23.8823 9.21894 23.9316 9.29295C24.2284 9.73814 24.4984 10.1576 24.704 10.603C25.1324 11.5311 25.2546 12.5137 24.9932 14.0822C24.8132 15.1619 26.9066 15.8584 26.9918 16.494C27.0185 16.6932 27.0443 16.8864 27.0608 17.0835C27.0957 17.5024 27.0814 17.9308 26.8946 18.4028C26.7117 18.8648 26.38 19.3271 25.8535 19.8535C25.3358 20.3713 24.9386 20.6974 24.6279 20.9345C24.5113 21.0234 24.4164 21.0934 24.3366 21.1522C24.1876 21.262 24.0913 21.3331 24.004 21.4171C23.8197 21.5946 23.7078 20.7944 23.4932 22.0822C23.3685 22.8303 22.2349 23.4579 21.9974 23.9513C21.7446 24.4763 21.3762 24.847 20.822 25.0846C20.2998 25.3083 19.6323 25.4049 18.7939 25.4523C17.9516 25.5 18.8776 25.5 17.5161 25.5H17.5C16.529 25.5 14.6262 25.5313 13.7762 25.5607C13.4304 25.5727 13.0933 25.5844 12.7639 25.5935C11.6375 25.6248 11.6002 24.6265 10.6793 24.495C9.7529 24.3626 8.91395 24.0917 8.19999 23.5562C7.48281 23.0184 6.93261 22.2443 6.53183 21.1755C5.767 19.136 5.1344 18.4755 4.81781 16.3227C4.65986 15.2487 4.57688 14.2768 4.60186 13.5607C4.61413 13.2089 4.65332 12.8788 4.74427 12.6208C4.79815 12.468 4.91069 12.2392 5.12123 12.1062C5.66169 10.8231 6.65676 10.0347 8.00783 8.5731C9.426 7.03889 11.3197 5.77948 13.5497 6.00248C15.9659 6.2441 15.3998 5.8839 16.4912 5.58074C16.5562 5.56268 16.6207 5.54455 16.6847 5.52653Z" fill="#202027"/>
</svg>
