<svg width="30" height="30" viewBox="0 0 30 30" fill="none" xmlns="http://www.w3.org/2000/svg">
<path fill-rule="evenodd" clip-rule="evenodd" d="M29 1H1V29H29V1ZM0 0V30H30V0H0Z" fill="#202027"/>
<path fill-rule="evenodd" clip-rule="evenodd" d="M15.3847 9.56954C16.0088 9.73413 16.7126 9.94534 17.3316 10.2786C17.9617 10.6178 18.5436 11.1047 18.8532 11.8378C19.1189 12.4697 19.1266 13.145 19.1266 13.7001C19.1286 13.8545 19.1385 14.0811 19.1506 14.3612C19.1854 15.1618 19.2391 16.3995 19.1834 17.6378C19.1453 18.484 19.056 19.3617 18.8698 20.1465C18.686 20.9216 18.3952 21.6614 17.9163 22.1812L17.9106 22.1873C17.2855 22.8434 16.3687 23.2145 15.4212 23.0149C14.4766 22.8228 13.8995 22.1766 13.6106 21.4229C13.3279 20.6851 13.3079 19.8244 13.4517 19.0795L13.453 19.0726L13.4546 19.0657C13.5243 18.7523 13.6078 18.4379 13.7042 18.1328C14.1315 16.7346 13.5269 15.2251 12.265 14.5549C11.2486 14.0253 10.772 13.2779 10.6553 12.5152C10.5432 11.7834 10.7719 11.1026 11.0382 10.675C11.5872 9.79386 13.1132 8.75175 15.3847 9.56954ZM11.887 11.2037C11.7193 11.4732 11.575 11.9153 11.6437 12.3639C11.7076 12.7813 11.9651 13.2715 12.7285 13.6688L12.7319 13.6706C14.4363 14.5745 15.223 16.5891 14.6597 18.4278L14.6584 18.432C14.5718 18.706 14.496 18.9904 14.4322 19.2759C14.3166 19.8812 14.3441 20.5425 14.5444 21.065C14.7391 21.573 15.0817 21.9259 15.6219 22.0353L15.6261 22.0361C16.1806 22.1534 16.7576 21.9458 17.1837 21.5004C17.4904 21.1659 17.729 20.6235 17.8968 19.9158C18.0629 19.2157 18.1477 18.4069 18.1844 17.5928C18.2379 16.4045 18.1885 15.2702 18.1537 14.4697C18.1403 14.1615 18.1291 13.9028 18.1267 13.7095L18.1266 13.7033C18.1266 13.1312 18.1095 12.6493 17.9319 12.2265C17.7414 11.7758 17.3689 11.4343 16.8576 11.1591C16.3424 10.8817 15.7271 10.6935 15.1085 10.5309L15.0861 10.525L15.0644 10.5171C13.2502 9.85571 12.2023 10.6977 11.887 11.2037Z" fill="#202027"/>
<path fill-rule="evenodd" clip-rule="evenodd" d="M11.064 6C11.652 6 12.128 6.67 12.128 7.497C12.128 8.325 11.652 8.996 11.064 8.996C10.476 8.996 10 8.325 10 7.497C10 6.67 10.476 6 11.064 6Z" fill="#202027"/>
<path fill-rule="evenodd" clip-rule="evenodd" d="M13.525 6.85452C13.875 6.85452 14.158 7.25452 14.158 7.74852C14.158 8.24152 13.875 8.64052 13.525 8.64052C13.175 8.64052 12.892 8.24152 12.892 7.74852C12.892 7.25452 13.175 6.85452 13.525 6.85452Z" fill="#202027"/>
<path fill-rule="evenodd" clip-rule="evenodd" d="M15.4957 7.51172C15.8077 7.51172 16.0617 7.86472 16.0617 8.29972C16.0617 8.73472 15.8077 9.08672 15.4957 9.08672C15.1847 9.08672 14.9337 8.73472 14.9337 8.29972C14.9337 7.86472 15.1847 7.51172 15.4957 7.51172Z" fill="#202027"/>
<path fill-rule="evenodd" clip-rule="evenodd" d="M17.2964 8.06641C17.5734 8.06641 17.7964 8.37841 17.7964 8.76241C17.7964 9.14641 17.5734 9.45941 17.2964 9.45941C17.0214 9.45941 16.7964 9.14641 16.7964 8.76241C16.7964 8.37841 17.0214 8.06641 17.2964 8.06641Z" fill="#202027"/>
<path fill-rule="evenodd" clip-rule="evenodd" d="M19.0875 9.78321C19.0195 10.1182 18.7675 10.3482 18.5265 10.2992C18.2845 10.2492 18.1445 9.93821 18.2125 9.60221C18.2825 9.26821 18.5325 9.03821 18.7755 9.08721C19.0175 9.13721 19.1575 9.44821 19.0875 9.78321Z" fill="#202027"/>
</svg>
