<svg width="30" height="30" viewBox="0 0 30 30" fill="none" xmlns="http://www.w3.org/2000/svg">
<path fill-rule="evenodd" clip-rule="evenodd" d="M29 1H1V29H29V1ZM0 0V30H30V0H0Z" fill="#1F1F27"/>
<path fill-rule="evenodd" clip-rule="evenodd" d="M23.6189 7.95846C23.7198 7.95846 23.8166 7.91841 23.888 7.84713C23.9594 7.77585 23.9995 7.67917 23.9995 7.57837V6.38113C23.9995 6.28023 23.9594 6.18344 23.8881 6.112C23.8167 6.04055 23.7199 6.00027 23.6189 6H6.38059C6.33052 6 6.28095 6.00987 6.2347 6.02903C6.18846 6.0482 6.14646 6.07629 6.1111 6.11169C6.07575 6.1471 6.04774 6.18912 6.02867 6.23535C6.00961 6.28159 5.99987 6.33113 6 6.38113V23.6189C6 23.8291 6.168 24 6.38059 24H23.6189C23.7199 23.9997 23.8167 23.9595 23.8881 23.888C23.9594 23.8166 23.9995 23.7198 23.9995 23.6189V8.85017C24.0022 8.79852 23.9943 8.74686 23.9764 8.69834C23.9585 8.64981 23.9308 8.60544 23.8952 8.56793C23.8595 8.53041 23.8166 8.50054 23.769 8.48013C23.7214 8.45971 23.6702 8.44918 23.6184 8.44918C23.5666 8.44918 23.5153 8.45971 23.4678 8.48013C23.4202 8.50054 23.3772 8.53041 23.3416 8.56793C23.3059 8.60544 23.2783 8.64981 23.2604 8.69834C23.2424 8.74686 23.2346 8.79852 23.2373 8.85017V15.3759H21.7253C21.6241 15.3759 21.527 15.4161 21.4555 15.4876C21.3839 15.5591 21.3437 15.656 21.3437 15.7571C21.3437 15.8582 21.3839 15.9551 21.4555 16.0266C21.527 16.0981 21.6241 16.1382 21.7253 16.1382H23.2373V23.2388H12.3528V21.3953C12.3566 21.343 12.3497 21.2905 12.3323 21.241C12.3149 21.1916 12.2875 21.1462 12.2518 21.1078C12.2161 21.0694 12.1728 21.0388 12.1247 21.0178C12.0766 20.9969 12.0247 20.9861 11.9722 20.9861C11.9197 20.9861 11.8678 20.9969 11.8197 21.0178C11.7715 21.0388 11.7283 21.0694 11.6926 21.1078C11.6568 21.1462 11.6294 21.1916 11.6121 21.241C11.5947 21.2905 11.5877 21.343 11.5916 21.3953V23.2388H6.7591V6.76018H11.5916V18.6507C11.5916 18.7516 11.6317 18.8482 11.7031 18.9195C11.7744 18.9908 11.8712 19.0308 11.9722 19.0308C12.0731 19.0308 12.1699 18.9908 12.2413 18.9195C12.3127 18.8482 12.3528 18.7516 12.3528 18.6507V16.1372H19.1338C19.235 16.1372 19.3321 16.097 19.4037 16.0255C19.4752 15.9541 19.5154 15.8571 19.5154 15.756C19.5154 15.655 19.4752 15.558 19.4037 15.4865C19.3321 15.4151 19.235 15.3749 19.1338 15.3749H12.3528V6.76018H23.2373V7.57837C23.2373 7.78757 23.4094 7.95846 23.6189 7.95846Z" fill="#1F1F27"/>
</svg>
