<svg xmlns="http://www.w3.org/2000/svg" xmlns:xlink="http://www.w3.org/1999/xlink" width="82" height="82"><defs><path id="a" d="M81.645 81.829H0V.354h81.645z"/></defs><g fill="none" fill-rule="evenodd"><path fill="#1F1F27" d="M55.721 29.689L36.146 49.223l-10.222-10.2-1.734 1.73 11.956 11.931 21.31-21.263z"/><g transform="translate(0 .095)"><mask id="b" fill="#fff"><use xlink:href="#a"/></mask><path fill="#1F1F27" d="M40.822 2.153c-21.516 0-39.02 17.468-39.02 38.939 0 21.47 17.504 38.938 39.02 38.938 21.516 0 39.02-17.467 39.02-38.938 0-3.829-.555-7.61-1.65-11.24a38.604 38.604 0 0 0-7.662-14.007A39.02 39.02 0 0 0 40.822 2.153m0 79.676C18.312 81.829 0 63.554 0 41.092 0 18.629 18.313.354 40.822.354a40.82 40.82 0 0 1 31.08 14.323 40.404 40.404 0 0 1 8.016 14.657 40.67 40.67 0 0 1 1.727 11.758c0 22.462-18.313 40.737-40.823 40.737" mask="url(#b)"/></g></g></svg>