<svg xmlns="http://www.w3.org/2000/svg" xmlns:xlink="http://www.w3.org/1999/xlink" width="82" height="82"><defs><path id="a" d="M81.286 81.194H0V.352h81.286z"/></defs><g fill="none" fill-rule="evenodd"><g transform="translate(0 .095)"><mask id="b" fill="#fff"><use xlink:href="#a"/></mask><path fill="#1F1F27" d="M40.643 2.136c-21.421 0-38.848 17.333-38.848 38.637 0 21.304 17.427 38.636 38.848 38.636 21.422 0 38.849-17.332 38.849-38.636 0-3.799-.553-7.55-1.643-11.152a38.266 38.266 0 0 0-7.629-13.9A38.903 38.903 0 0 0 40.643 2.137m0 79.058C18.233 81.194 0 63.06 0 40.773S18.232.352 40.643.352a40.698 40.698 0 0 1 30.943 14.212 40.05 40.05 0 0 1 7.981 14.543 40.228 40.228 0 0 1 1.72 11.666c0 22.288-18.233 40.42-40.644 40.42" mask="url(#b)"/></g><path fill="#1F1F27" d="M51.672 53.097L28.345 29.9l1.269-1.262 23.327 23.197z"/><path fill="#1F1F27" d="M29.614 53.097l-1.269-1.262 23.328-23.197L52.94 29.9z"/></g></svg>