<?xml version="1.0" encoding="UTF-8"?>
<svg width="53px" height="20px" viewBox="0 0 53 20" version="1.1" xmlns="http://www.w3.org/2000/svg" xmlns:xlink="http://www.w3.org/1999/xlink">
    <!-- Generator: Sketch 43.2 (39069) - http://www.bohemiancoding.com/sketch -->
    <title>logo aj</title>
    <desc>Created with Sketch.</desc>
    <defs></defs>
    <g id="Symbols" stroke="none" stroke-width="1" fill="none" fill-rule="evenodd">
        <g id="footer" transform="translate(-1479.000000, -918.000000)" fill="#1F1F27">
            <g id="Group-14">
                <g transform="translate(0.000000, 414.000000)">
                    <g id="Group-23" transform="translate(1272.000000, 504.000000)">
                        <g id="logo-aj" transform="translate(207.000000, 0.000000)">
                            <path d="M46.9926472,9.09302448 C46.7473799,8.97537294 46.4476718,8.91640611 46.0926722,8.91640611 C45.1118865,8.91640611 44.621919,9.69877469 44.621919,11.2632297 L44.621919,13.3202976 L42.8591135,13.3202976 L42.8591135,7.42756407 L44.621919,7.42756407 L44.621919,8.85405362 C44.7653933,8.34028039 44.9959162,7.95403351 45.3129207,7.69249162 C45.629358,7.43207828 45.9574207,7.30201267 46.295124,7.30201267 C46.6838656,7.30201267 47.0224196,7.37339358 47.3099352,7.51587325 L46.9926472,9.09302448 Z M42.3081836,10.9616242 L37.972198,10.9616242 C38.0144464,11.2807223 38.1811714,11.5253359 38.4723732,11.6926437 C38.7644256,11.8616443 39.0834148,11.9454393 39.4304752,11.9454393 C40.0049394,11.9454393 40.4359293,11.7609211 40.7237285,11.3901918 L42.0042223,12.2611517 C41.4629329,13.0607307 40.5623908,13.4588273 39.303163,13.4588273 C38.4326767,13.4588273 37.6999939,13.1710466 37.1034131,12.5949209 C36.5073993,12.0190773 36.2091089,11.2764902 36.2091089,10.3685702 C36.2091089,9.45895742 36.5073993,8.72285947 37.1034131,8.15971209 C37.6999939,7.59684685 38.4326767,7.31527316 39.303163,7.31527316 C40.1654264,7.31527316 40.8859168,7.60248961 41.4654849,8.17805106 C42.0444858,8.75417678 42.3339863,9.50212453 42.3339863,10.4179444 C42.3339863,10.5790451 42.3257635,10.758767 42.3081836,10.9616242 L42.3081836,10.9616242 Z M34.6379805,13.3324295 L32.6593964,10.9988664 L32.6593964,13.3324295 L30.9093505,13.3324295 L30.9093505,4.23489086 L32.6593964,4.23489086 L32.6593964,9.05578226 L34.0669188,7.44054241 L36.310902,7.44054241 L33.8508568,10.0395973 L36.8054062,13.3324295 L34.6379805,13.3324295 Z M29.2548595,12.5822247 C28.6582787,13.1496041 27.9292819,13.4345635 27.0670185,13.4345635 C26.2047551,13.4345635 25.4774596,13.1496041 24.8859826,12.5822247 C24.2942221,12.014281 23.9979165,11.2762081 23.9979165,10.3685702 C23.9979165,9.45895742 24.2942221,8.72342374 24.8859826,8.15914781 C25.4774596,7.59712899 26.2047551,7.31527316 27.0670185,7.31527316 C27.9292819,7.31527316 28.6582787,7.59712899 29.2548595,8.15914781 C29.849739,8.72342374 30.148313,9.45895742 30.148313,10.3685702 C30.148313,11.2762081 29.849739,12.014281 29.2548595,12.5822247 L29.2548595,12.5822247 Z M23.1231771,5.98922472 C22.9113682,6.19179978 22.6536249,6.29195876 22.3496635,6.29195876 C22.0457022,6.29195876 21.7851234,6.19179978 21.569912,5.98922472 C21.35385,5.78749608 21.246386,5.54401101 21.246386,5.25735884 C21.246386,4.9723995 21.35385,4.73004298 21.569912,4.53169999 C21.7851234,4.33561411 22.0457022,4.23573727 22.3496635,4.23573727 C22.6536249,4.23573727 22.9113682,4.33561411 23.1231771,4.53169999 C23.3341353,4.73004298 23.4401815,4.9723995 23.4401815,5.25735884 C23.4401815,5.54401101 23.3341353,5.78749608 23.1231771,5.98922472 L23.1231771,5.98922472 Z M23.2374461,13.7372975 C23.2374461,14.5614225 23.0633489,15.194258 22.7174227,15.6355217 C22.370646,16.0776319 21.7953311,16.2982638 20.9928959,16.2982638 L19.9145704,16.2982638 L19.9145704,14.7086985 L20.6889346,14.7086985 C21.2208669,14.7086985 21.4786102,14.3977825 21.461881,13.7748219 L21.461881,7.44054241 L23.2374461,7.44054241 L23.2374461,13.7372975 Z M19.1410569,13.333276 L17.3912945,13.333276 L17.3912945,5.18231014 L19.1410569,5.18231014 L19.1410569,7.44082455 L20.4938549,7.44082455 L20.4938549,8.96126605 L19.1410569,8.96126605 L19.1410569,13.333276 Z M16.4496382,9.10628496 C16.2046544,8.98863343 15.9049463,8.92966659 15.5499467,8.92966659 C14.5694446,8.92966659 14.0791935,9.71203517 14.0791935,11.2762081 L14.0791935,13.3335581 L12.3169551,13.3335581 L12.3169551,7.44082455 L14.0791935,7.44082455 L14.0791935,8.86703197 C14.2221007,8.35354087 14.4531907,7.96701186 14.7699116,7.7057521 C15.0869161,7.44533876 15.4144117,7.31527316 15.7523985,7.31527316 C16.1414237,7.31527316 16.4799776,7.38608979 16.7672097,7.52913374 L16.4496382,9.10628496 Z M11.3988331,13.3327117 L9.64850361,13.3327117 L9.64850361,12.6634804 C9.47951018,12.9168403 9.21949849,13.1098227 8.86846853,13.2446846 C8.51800567,13.3795466 8.20355314,13.4472597 7.92482742,13.4472597 C7.12948086,13.4472597 6.42798803,13.163711 5.8189312,12.5943566 C5.21072501,12.0269772 4.9061966,11.2877757 4.9061966,10.3807021 C4.9061966,9.47278218 5.21072501,8.73470926 5.8189312,8.1664834 C6.42798803,7.59741112 7.12948086,7.31470888 7.92482742,7.31470888 C8.20355314,7.31470888 8.50921574,7.37311144 8.84351649,7.49104511 C9.17696659,7.60869664 9.44548466,7.81014315 9.64850361,8.0973596 L9.64850361,7.44110669 L11.3988331,7.44110669 L11.3988331,13.3327117 Z M0,19.953079 L52.3068665,19.953079 L52.3068665,0 L0,0 L0,19.953079 Z" id="Fill-7"></path>
                            <path d="M27.0669051,9.02958333 C26.6948927,9.02958333 26.3801567,9.15625434 26.1221298,9.40818576 C25.8641029,9.66124566 25.7356566,9.98032118 25.7356566,10.3679514 C25.7356566,10.7710981 25.8641029,11.0980729 26.1221298,11.3457726 C26.3801567,11.5934722 26.6948927,11.7170399 27.0669051,11.7170399 C27.4474238,11.7170399 27.7664131,11.5934722 28.02444,11.3457726 C28.2818997,11.0980729 28.4109132,10.7710981 28.4109132,10.3679514 C28.4109132,9.98032118 28.2799149,9.66124566 28.0179184,9.40818576 C27.7562054,9.15625434 27.4389175,9.02958333 27.0669051,9.02958333" id="Fill-1"></path>
                            <path d="M40.1213634,9.11193359 C39.8721264,8.93984158 39.6036083,8.85294922 39.3158091,8.85294922 C39.028577,8.85294922 38.753821,8.93786675 38.4915409,9.10516276 C38.2292608,9.27415148 38.0648042,9.52636502 37.9973202,9.86264974 L40.5588749,9.86264974 C40.5166265,9.53454644 40.3700332,9.28374349 40.1213634,9.11193359" id="Fill-3"></path>
                            <path d="M8.21551878,8.97970486 C7.82706075,8.97970486 7.4828359,9.11230035 7.18256067,9.37692708 C6.88228545,9.64211806 6.73200606,9.97586372 6.73200606,10.3801389 C6.73200606,10.7835677 6.88228545,11.1184418 7.18256067,11.3825043 C7.4828359,11.6479774 7.82706075,11.7805729 8.21551878,11.7805729 C8.59603753,11.7805729 8.93005473,11.6519271 9.21785393,11.3949175 C9.50451894,11.1393186 9.64856032,10.8013411 9.64856032,10.3801389 C9.64856032,9.95950087 9.50451894,9.62067708 9.21785393,9.36451389 C8.93005473,9.10778646 8.59603753,8.97970486 8.21551878,8.97970486" id="Fill-5"></path>
                        </g>
                    </g>
                </g>
            </g>
        </g>
    </g>
</svg>